# xmcd
# 
# Track frame offsets:
#   150
#   20155
#   37075
#   51352
#   67227
#   83685
#   103025
#   124612
#   139892
#   157620
#   173902
#   190087
#   204427
#   219880
#   236445
# 
# Disc length: 3381 seconds
# 
# Revision: 2
# Processed by: cddbd v1.5.1PL2 Copyright (c) Steve Scherf et al.
# Submitted via: Synapstar 1.0 
# 
DISCID=ce0d330f
DTITLE=Various Artist - MM6339
DYEAR=1900
DGENRE=Country
TTITLE0=Sheadaisy - Still Holding Out For You
TTITLE1=Jo Dee Messina - Downtime
TTITLE2=Jamie O'Neal - When I Think About Angels
TTITLE3=Rascal Flatts - While You Loved Me
TTITLE4=Tammy Cochran - Angels In Waiting
TTITLE5=Lonestar - I'm Already There
TTITLE6=Richard Marx - Straight From My Heart
TTITLE7=Cyndi Thomas - What I Really Meant To Say
TTITLE8=Darryl Worley - Second Wind
TTITLE9=Lee Ann Womack - Why They Call It Falling
TTITLE10=3 Of Hearts - Love Is Enough
TTITLE11=Keith Urban - Where The Blacktop Ends
TTITLE12=Wilkinsons - I Wanna Be That Girl
TTITLE13=Carolyn Dawn Johnson - Complicated
TTITLE14=Trisha Yearwood - I Would've Loved You Anyway
EXTD=MediaType: Karaoke CD+G Producer: Music Maestro
EXTT0=
EXTT1=
EXTT2=
EXTT3=
EXTT4=
EXTT5=
EXTT6=
EXTT7=
EXTT8=
EXTT9=
EXTT10=
EXTT11=
EXTT12=
EXTT13=
EXTT14=
PLAYORDER=
